<svg id="Layer_1" data-name="Layer 1" xmlns="http://www.w3.org/2000/svg" viewBox="0 0 645.44 671.29"><defs><style>.cls-1{fill:#2b7b65;}.cls-2{fill:#f04f3c;}</style></defs><g id="RYekp1"><path d="M548.09,554.31c-11.93,25.93-23.13,31.49-50.87,26.14a8.29,8.29,0,0,0-6.66,2.16c-18.76,21.79-37.56,23.47-59.66,5-32.6,15.48-57.71-.49-59.56-36.66-17.41,0-34.91-.08-52.42.13-1.47,0-3.06,1.78-4.36,3-24.54,22.79-54,31.55-86.94,31.26-27.38-.23-54.8-.81-82.14.37-32.68,1.41-43.3-22.6-40.17-44.36.34-2.36.42-4.76.61-7-26.53-11.5-32.33-24.3-25.14-55.44-1.77-1.28-3.73-2.64-5.63-4.07-17.75-13.32-20.49-36.95-5.79-53.74,3.16-3.61,3.45-5.91,1.31-10.13-7.53-14.92-4.66-30.41,6.68-42.88,2.17-2.38,2.89-6.19,4-9.45.45-1.37,0-3,.09-4.54,1.4-14.95-1.7-27.39-12.4-39.65-15.78-18.09-22-41-22.16-65.17-.15-31.95.37-63.92-.57-95.84-.88-29.92,23.2-39.72,43.58-37.27,2.38.29,4.76.6,7,.88,15.26-28.25,21.77-31.19,56-25.47C171,67.1,192.6,64.34,214.46,83.77c38.49-12.53,52-4.5,60.22,36.7,16.72,0,33.67.16,50.6-.18,2.29-.05,4.81-2.3,6.73-4.06C354.16,96,380.58,86.6,410.21,86.17c31.33-.47,62.67-.12,94-.49,26.52-.31,37.17,19.55,36.38,39.23-.16,3.93-.83,7.83-1.34,12.49,11.34,3.24,22.23,8.82,25.25,20.84,2.69,10.76,2,22.38,2.87,35.46,19,12.54,27.57,36.66,4.87,61.32,8.1,13.32,11.23,29,.8,40.76-11.81,13.34-8,27.56-8.55,41.81-.11,3.05,2.42,6.71,4.67,9.27,19.26,21.91,29.41,47.22,29.46,76.5,0,31-.65,62.11.53,93.1,1.16,30.65-22.16,41-43.26,38.62C553.22,554.77,550.55,554.55,548.09,554.31ZM432.81,313.88c0,8.26-.46,15.84.12,23.33.7,9.07-3.38,14.24-10.68,19.26-18.51,12.73-37.27,25.38-54.14,40.12-19.2,16.8-26.24,26.44-7.88,50.93,3.57,4.76,6.44,10.05,9.64,15.09,2-5.64,1.85-10.19,2-14.73.24-7.1,3.61-11.7,11.07-11.7s10.94,4.46,11.12,11.65c.2,8.21.37,16.42.36,24.64,0,26.77-.35,53.55-.16,80.32.08,11,6,17.62,14.51,17.72s13.6-6.47,14-17.92c.14-4.56,0-9.13.05-13.69,0-12.78-.49-25.6.43-38.31.26-3.49,4.27-8.52,7.54-9.48,3.48-1,8.76,1.1,12,3.52,2,1.47,2.27,6.06,2.31,9.26.21,18.86-.08,37.73.23,56.58.17,10.35,6.09,16.45,14.66,16.26,8.25-.19,13.18-5.81,13.66-16.14.27-5.77-.08-11.56-.12-17.34-.08-13.38-.3-26.77-.16-40.16.08-7.86,4.21-12.71,12.29-12.9s11.23,4.92,11.59,12.27c.17,3.34.11,6.69.13,10,0,11.85-.05,23.71.16,35.56.14,8.44,5.48,11.65,13.15,11.94,9.68.36,14.28-4.07,14.44-14.56.24-16.11,0-32.24.11-48.36,0-7.72,4-12,11.85-11.8,7.53.22,10.63,4.81,10.69,12,.06,7.91-.06,15.83.45,23.71.52,8.09,5.55,11.68,13.41,11.84,10.33.21,14.43-4.35,14.51-17.4.17-30.43.43-60.86,0-91.28-.42-26.43-10.47-48.94-29.53-67.52-2.62-2.56-4.36-7.1-4.58-10.83-.61-10.49-.21-21-.21-31.91ZM275.92,208.63l-2.38.75c0,4.73.09,9.45,0,14.17-.17,7.26-4,11.76-11.2,11.65s-10.89-4.63-11-11.9c-.1-6.69-.33-13.39-.32-20.08q.1-40.15.32-80.32a61.63,61.63,0,0,0-.16-6.38c-.94-9.37-6.88-15.72-14.64-15.79S223,107,222.77,117c-.36,16.73-.05,33.47-.14,50.2-.06,9.82-3.7,14.18-11.53,13.82-8.69-.39-11-5.9-11-13.64.16-18,.11-35.91,0-53.86,0-12.12-5.66-19.21-14.81-19-8.9.19-13.41,6.39-13.63,19-.09,5.47.21,10.94.22,16.42q.06,19.16,0,38.33c0,7.09-3.32,11.58-10.52,12.57-8.41,1.16-13.08-3.28-13.28-13.13-.29-14.89-.09-29.79-.3-44.68-.11-8-5.14-11.17-12.42-11.69-9.65-.7-14.88,3.75-15.08,13.82-.34,16.42,0,32.85-.21,49.27C120.06,181.57,116.49,186,109,186s-11.11-4.13-11.26-11.42c-.14-7.6.24-15.24-.28-22.81-.69-9.86-6.83-14.46-16.68-13.25-8.3,1-11.47,5.67-11.51,17.6q-.15,43.35-.11,86.71c0,28.16,9.66,52.21,29.89,72.08,2.6,2.55,4.18,7.17,4.39,10.94.6,10.24.21,20.54.21,31.28H212.16c.27-1.73.79-3,.58-4-4.66-23.71,6-37.48,26.37-49.33,18.09-10.5,33.27-26.21,49.08-40.35,6.25-5.59,10.33-14.33,6.7-22.38C289.78,229.7,282.36,219.39,275.92,208.63ZM233,333.12c0,13.3-.17,23.55.05,33.8.17,7.61-2.92,12.27-10.69,13.1a120.33,120.33,0,0,1-12.73.66c-34.06,0-68.12-.29-102.18-.12-11.1.05-17.75,5.89-17.83,14.27-.09,8.54,6.46,13.73,17.9,13.82,16.12.12,32.24,0,48.36.05,9.82,0,14.16,3.62,14,11.43-.18,8.83-5.65,11.08-13.41,11-18.84-.1-37.69-.4-56.51.29-11.37.42-17.12,6.64-16.48,15.35.63,8.44,6.48,12.82,17.73,12.86,18.25.07,36.5-.11,54.74,0,9,0,13.77,4.27,14,12s-4.32,11.7-13.87,11.79c-14.29.13-28.59-.14-42.88.21-9.21.23-13.07,4.8-12.92,14s4.26,13.31,14.5,13.49c15.81.27,31.62,0,47.43.11,7.28.05,12.42,3,12.77,11.1.33,7.46-4,11.58-12.89,11.92-7.59.3-15.21,0-22.8.3-7.81.26-11.32,5-11.82,12.33-.71,10.38,3.92,15.13,15.51,15.19q47,.21,94,0c20.44-.1,40.42-5.15,54.49-19.57,13.89-14.24,29.1-16.19,46.75-15,8.79.57,17.64.15,26.46,0a57,57,0,0,0,6.56-.79c2-11.14-.2-20.2-6.3-29.06-9.47-13.76-17.49-28.52-26.78-42.4-8.34-12.46-14.53-25.17-9.77-42.9-22.91,6.73-28.31-11-37.39-23.67-1.24-1.73-2.31-3.6-3.68-5.21-11.2-13.17-22-26.77-34-39.17C248.61,339.52,241.12,337.47,233,333.12Zm179.48,2.2c0-10.62.15-20.88-.05-31.13-.16-7.71,3.31-12.13,10.89-13a97.46,97.46,0,0,1,11.84-.53q49.74.09,99.47.27a54.18,54.18,0,0,0,6.37-.38c9-1,14.79-6.62,14.82-14.31s-5.95-13.3-15.39-13.48c-17-.32-34.07-.19-51.1-.08-7.68.05-13.25-2.19-13.64-10.95-.34-7.69,3.5-11.36,12.82-11.5,16.1-.23,32.21-.08,48.32-.15a86.27,86.27,0,0,0,10.91-.51C557.21,238.28,562.3,233,562,225s-5.76-13.19-15.42-13.32c-19.16-.26-38.33,0-57.5-.05-8.8,0-13.51-4.52-13.52-12.34,0-7.53,4.1-11.25,13.28-11.37,13.69-.18,27.38.08,41.07-.13,11.13-.17,15.18-4,15.3-13.59.13-9.87-4.32-13.94-15.82-14-15.51-.12-31,0-46.53-.1-7.46-.06-12.27-3.6-12.33-11.51-.07-8.07,5-11.26,12.36-11.5,7.9-.26,15.81-.08,23.72-.31,6.93-.2,10.35-4.36,11.29-10.87,1.55-10.82-3.34-16.56-14.93-16.63-31.64-.19-63.28-.39-94.91,0-25.18.31-46.81,10-64.33,27.93-4.69,4.82-9.18,6.81-15.79,6.66-17.83-.41-35.68-.14-53.33-.14-2.24,15.84-2.14,16.42,4.87,27.72,9.93,16,19.6,32.21,29.9,48,7.42,11.37,12.08,23.09,8.42,36.61a11.11,11.11,0,0,0,2.13,1.07,6.94,6.94,0,0,0,2.7.23c11.86-2.57,18.73,3.58,23.82,13.26a56.42,56.42,0,0,0,6.11,9.06c12.4,15.35,24.6,30.87,37.5,45.79C395.44,331.62,402.69,335.72,412.45,335.32ZM384.59,350c-23.94-17.32-42.1-40.66-58.18-65.84-2.69-4.21-20.21-5.49-24.3-1.71-13.71,12.71-27.2,25.66-41.26,39,24,17.19,42,40.6,58.19,65.75,2.74,4.26,20.2,5.42,24.3,1.63C357.06,376.08,370.59,363.18,384.59,350Z"/><path class="cls-1" d="M432.81,313.88h109c0,10.89-.4,21.42.21,31.91.22,3.73,2,8.27,4.58,10.83,19.06,18.58,29.11,41.09,29.53,67.52.47,30.42.21,60.85,0,91.28-.08,13.05-4.18,17.61-14.51,17.4-7.86-.16-12.89-3.75-13.41-11.84-.51-7.88-.39-15.8-.45-23.71-.06-7.18-3.16-11.77-10.69-12-7.86-.23-11.8,4.08-11.85,11.8-.09,16.12.13,32.25-.11,48.36-.16,10.49-4.76,14.92-14.44,14.56-7.67-.29-13-3.5-13.15-11.94-.21-11.85-.12-23.71-.16-35.56,0-3.35,0-6.7-.13-10-.36-7.35-3.57-12.45-11.59-12.27s-12.21,5-12.29,12.9c-.14,13.39.08,26.78.16,40.16,0,5.78.39,11.57.12,17.34-.48,10.33-5.41,15.95-13.66,16.14-8.57.19-14.49-5.91-14.66-16.26-.31-18.85,0-37.72-.23-56.58,0-3.2-.32-7.79-2.31-9.26-3.27-2.42-8.55-4.54-12-3.52-3.27,1-7.28,6-7.54,9.48-.92,12.71-.41,25.53-.43,38.31,0,4.56.09,9.13-.05,13.69-.37,11.45-5.54,18-14,17.92s-14.43-6.77-14.51-17.72c-.19-26.77.12-53.55.16-80.32,0-8.22-.16-16.43-.36-24.64-.18-7.19-3.69-11.65-11.12-11.65s-10.83,4.6-11.07,11.7c-.15,4.54,0,9.09-2,14.73-3.2-5-6.07-10.33-9.64-15.09-18.36-24.49-11.32-34.13,7.88-50.93,16.87-14.74,35.63-27.39,54.14-40.12,7.3-5,11.38-10.19,10.68-19.26C432.35,329.72,432.81,322.14,432.81,313.88Z"/><path class="cls-1" d="M275.92,208.63c6.44,10.76,13.86,21.07,19,32.43,3.63,8.05-.45,16.79-6.7,22.38-15.81,14.14-31,29.85-49.08,40.35-20.39,11.85-31,25.62-26.37,49.33.21,1.08-.31,2.31-.58,4H103.63c0-10.74.39-21-.21-31.28-.21-3.77-1.79-8.39-4.39-10.94C78.8,295.07,69.13,271,69.14,242.86q0-43.35.11-86.71c0-11.93,3.21-16.57,11.51-17.6,9.85-1.21,16,3.39,16.68,13.25.52,7.57.14,15.21.28,22.81.15,7.29,3.84,11.44,11.26,11.42s11.08-4.46,11.16-11.59c.18-16.42-.13-32.85.21-49.27.2-10.07,5.43-14.52,15.08-13.82,7.28.52,12.31,3.73,12.42,11.69.21,14.89,0,29.79.3,44.68.2,9.85,4.87,14.29,13.28,13.13,7.2-1,10.5-5.48,10.52-12.57q0-19.17,0-38.33c0-5.48-.31-10.95-.22-16.42.22-12.65,4.73-18.85,13.63-19,9.15-.19,14.76,6.9,14.81,19,.08,18,.13,35.91,0,53.86-.06,7.74,2.27,13.25,11,13.64,7.83.36,11.47-4,11.53-13.82.09-16.73-.22-33.47.14-50.2.21-10,6-16.33,13.75-16.26s13.7,6.42,14.64,15.79a61.63,61.63,0,0,1,.16,6.38q-.16,40.17-.32,80.32c0,6.69.22,13.39.32,20.08.11,7.27,3.84,11.79,11,11.9s11-4.39,11.2-11.65c.11-4.72,0-9.44,0-14.17Z"/><path class="cls-2" d="M233,333.12c8.15,4.35,15.64,6.4,20.28,11.21,12,12.4,22.76,26,34,39.17,1.37,1.61,2.44,3.48,3.68,5.21,9.08,12.65,14.48,30.4,37.39,23.67-4.76,17.73,1.43,30.44,9.77,42.9,9.29,13.88,17.31,28.64,26.78,42.4,6.1,8.86,8.3,17.92,6.3,29.06a57,57,0,0,1-6.56.79c-8.82.1-17.67.52-26.46,0-17.65-1.16-32.86.79-46.75,15-14.07,14.42-34.05,19.47-54.49,19.57q-47,.21-94,0c-11.59-.06-16.22-4.81-15.51-15.19.5-7.38,4-12.07,11.82-12.33,7.59-.25,15.21,0,22.8-.3,8.86-.34,13.22-4.46,12.89-11.92-.35-8.09-5.49-11-12.77-11.1-15.81-.11-31.62.16-47.43-.11-10.24-.18-14.34-4.32-14.5-13.49s3.71-13.76,12.92-14c14.29-.35,28.59-.08,42.88-.21,9.55-.09,14.05-4,13.87-11.79s-4.92-11.93-14-12c-18.24-.08-36.49.1-54.74,0-11.25,0-17.1-4.42-17.73-12.86-.64-8.71,5.11-14.93,16.48-15.35,18.82-.69,37.67-.39,56.51-.29,7.76,0,13.23-2.21,13.41-11,.16-7.81-4.18-11.39-14-11.43-16.12-.08-32.24.07-48.36-.05-11.44-.09-18-5.28-17.9-13.82.08-8.38,6.73-14.22,17.83-14.27,34.06-.17,68.12.09,102.18.12a120.33,120.33,0,0,0,12.73-.66c7.77-.83,10.86-5.49,10.69-13.1C232.8,356.67,233,346.42,233,333.12Z"/><path class="cls-2" d="M412.45,335.32c-9.76.4-17-3.7-22.37-9.9-12.9-14.92-25.1-30.44-37.5-45.79a56.42,56.42,0,0,1-6.11-9.06c-5.09-9.68-12-15.83-23.82-13.26a6.94,6.94,0,0,1-2.7-.23,11.11,11.11,0,0,1-2.13-1.07c3.66-13.52-1-25.24-8.42-36.61-10.3-15.78-20-32-29.9-48-7-11.3-7.11-11.88-4.87-27.72,17.65,0,35.5-.27,53.33.14,6.61.15,11.1-1.84,15.79-6.66,17.52-18,39.15-27.62,64.33-27.93,31.63-.38,63.27-.18,94.91,0,11.59.07,16.48,5.81,14.93,16.63-.94,6.51-4.36,10.67-11.29,10.87-7.91.23-15.82.05-23.72.31-7.32.24-12.43,3.43-12.36,11.5.06,7.91,4.87,11.45,12.33,11.51,15.51.14,31,0,46.53.1,11.5.09,16,4.16,15.82,14-.12,9.63-4.17,13.42-15.3,13.59-13.69.21-27.38,0-41.07.13-9.18.12-13.29,3.84-13.28,11.37,0,7.82,4.72,12.3,13.52,12.34,19.17.09,38.34-.21,57.5.05,9.66.13,15.14,5.31,15.42,13.32s-4.81,13.28-14.31,14.54a86.27,86.27,0,0,1-10.91.51c-16.11.07-32.22-.08-48.32.15-9.32.14-13.16,3.81-12.82,11.5.39,8.76,6,11,13.64,10.95,17-.11,34.07-.24,51.1.08,9.44.18,15.43,5.87,15.39,13.48S550,289.5,541,290.52a54.18,54.18,0,0,1-6.37.38q-49.73-.12-99.47-.27a97.46,97.46,0,0,0-11.84.53c-7.58.9-11.05,5.32-10.89,13C412.6,314.44,412.45,324.7,412.45,335.32Z"/></g></svg>